<svg width="1440" height="834" viewBox="0 0 1440 834" fill="none" xmlns="http://www.w3.org/2000/svg">
<g clip-path="url(#clip0_2911_401)">
<rect width="1440" height="834" fill="#42406A"/>
<path fill-rule="evenodd" clip-rule="evenodd" d="M933.65 792.164L951.494 754.277C951.494 754.277 950.233 716.654 939.565 696.265C938.205 693.665 937.221 690.929 936.278 688.305C933.896 681.68 931.77 675.768 924.484 674.555C918.426 673.547 914.391 675.351 909.232 678.826C904.412 682.073 902.582 687.699 898.967 693.988C896.8 697.757 895.355 700.271 893.333 703.788C890.418 708.858 888.749 712.187 885.723 717.451C880.467 724.56 875.767 730.917 873.26 741.396C870.966 750.982 869.752 756.912 871.609 766.526C871.71 767.05 871.808 767.564 871.904 768.071L871.905 768.074C873.379 775.816 874.472 781.558 880.644 786.766C886.093 791.363 897.915 792.683 897.915 792.683L933.65 792.164ZM957.906 960.575L1071.43 1014.81L1083.18 999.498C1083.18 999.498 1096.16 1008.37 1105.38 1012.26C1106.67 1012.8 1107.86 1013.33 1109 1013.83C1114.19 1016.13 1118.11 1017.86 1124.56 1018.27C1132.24 1018.77 1137.18 1016.95 1143.6 1014.58C1145.08 1014.04 1146.64 1013.46 1148.33 1012.88C1148.63 1012.78 1148.93 1012.68 1149.22 1012.57C1158.76 1009.29 1164.67 1007.26 1172.92 1000.94C1182.72 993.413 1192.96 976.349 1192.96 976.349L1284.99 802.573L998.577 656.97L969.211 718.323C969.211 718.323 969.643 673.191 950.063 659.17C949.773 658.962 949.493 658.761 949.223 658.566C946.466 656.58 944.629 655.257 941.185 654.066C935.791 652.2 931.905 652.762 926.81 653.497C925.776 653.647 924.691 653.804 923.534 653.949C912.448 655.338 906.126 657.732 896.423 663.438C880.255 672.945 874.154 684.103 865.535 699.866C864.858 701.103 864.167 702.368 863.454 703.662C854.616 719.704 849.756 729.709 847.882 747.87C847.808 748.583 847.735 749.285 847.663 749.978C846.122 764.73 845.04 775.088 852.128 788.426C855.514 794.799 858.066 798.216 863.457 802.964C868.754 807.628 872.767 809.38 878.842 812.033C879.37 812.263 879.913 812.5 880.474 812.747C887.657 815.903 891.877 817.614 899.657 818.76C908.556 820.071 922.74 817.989 922.74 817.989C922.74 817.989 915.111 837.907 912.496 851.217C910.274 862.529 908.995 869.06 909.419 880.542C909.462 881.735 909.5 882.889 909.536 884.011C909.898 895.251 910.154 903.195 916.086 913.462C921.61 923.025 936.293 933.104 936.293 933.104L954.049 943.312L960.707 947.14L957.906 960.575Z" fill="#212035"/>
<path fill-rule="evenodd" clip-rule="evenodd" d="M1062 407.478V386.596C1062 386.596 1065.78 379.741 1069.71 377.025C1072.69 374.966 1078.28 373.544 1078.28 373.544L1163.11 441.412L1146.83 363.973H1432.16L1385.04 635.444H1482.72L1443.3 684.169H1131.41L1095.42 635.444H1201.67L1187.1 555.395C1187.1 555.395 1143.12 542.929 1121.98 524.071C1115.05 517.885 1105.7 506.669 1105.7 506.669L1074.85 450.113L1062 407.478ZM1180.25 524.071L1170.82 471.865L1163.11 462.294L1142.55 441.412L1102.27 414.439C1102.27 414.439 1092.52 405.22 1085.99 407.478C1082.18 408.797 1079.37 410.498 1078.28 414.439C1076.78 419.885 1085.99 426.62 1085.99 426.62L1114.27 484.917L1131.41 509.279C1131.41 509.279 1144.75 519.758 1154.54 524.071C1164.07 528.269 1180.25 531.032 1180.25 531.032V524.071Z" fill="#212035"/>
<path fill-rule="evenodd" clip-rule="evenodd" d="M788.08 878.871L623.343 894.548L574.69 782.194C574.69 782.194 546.144 769.861 528.598 760.419C523.762 757.817 519.305 755.538 515.102 753.39C499.746 745.539 487.778 739.422 473.117 725.581C471.095 723.672 469.185 721.983 467.378 720.386C460.978 714.729 455.884 710.226 451.778 701.194C447.899 692.659 445.378 686.994 446.657 677.677C447.982 668.026 451.303 662.184 458.607 655.903C466.524 649.094 473.903 648.721 483.718 648.226C484.711 648.175 485.729 648.124 486.774 648.065C503.646 647.105 528.598 659.387 528.598 659.387L514.088 624.548L639.561 610.613L816.247 592.323L804.297 848.387C804.297 848.387 803.315 859.648 800.029 865.806C796.759 871.936 788.08 878.871 788.08 878.871ZM536.28 685.516L563.594 752.581L514.088 725.581C514.088 725.581 488.758 714.594 478.238 701.194C477.127 699.778 475.988 698.534 474.904 697.351C471.7 693.852 468.974 690.876 468.849 685.516C468.676 678.051 472.084 673.007 478.238 668.968C483.807 665.313 488.82 666.459 494.695 667.802C496.511 668.217 498.409 668.651 500.431 668.968C515.619 671.348 536.28 685.516 536.28 685.516Z" fill="#212035"/>
<path fill-rule="evenodd" clip-rule="evenodd" d="M984.217 237.129L1014.99 291.915L1334.87 334.079L1377.15 285.683L1271.52 272.631L1297.74 198.516L1353.13 184.264C1353.13 184.264 1368.72 177.848 1377.35 171.435C1389.1 162.705 1394.37 153.862 1400.8 143.1C1403 139.411 1405.33 135.497 1408.11 131.285C1410.47 127.711 1412.72 124.377 1414.86 121.197C1426.76 103.566 1435.47 90.6602 1441.4 67.7134C1442.31 64.1828 1443.49 60.9545 1444.62 57.8829C1447.59 49.7379 1450.17 42.694 1446.28 34.0342C1444.82 30.7836 1441.36 26.3947 1441.36 26.3947C1441.36 26.3947 1429.85 28.893 1422.62 31.1105C1385.34 42.5454 1337.44 84.7535 1337.44 84.7535L1362.46 6.97579L1077.69 -28.2129L1086.46 249.763L984.217 237.129ZM1309.85 168.367L1327.87 115.215C1327.87 115.215 1367.89 76.9091 1399.15 62.4925C1401.52 61.4019 1403.54 60.2086 1405.44 59.0822C1409.74 56.5456 1413.46 54.3483 1419.24 54.4269C1419.88 54.4355 1420.47 54.3871 1421.03 54.3411C1422.54 54.2184 1423.83 54.1129 1425.16 55.1578C1427.27 56.8227 1426.22 59.1427 1425.06 61.7097C1424.51 62.9383 1423.93 64.2235 1423.66 65.5206C1420.94 78.5012 1415.83 86.1492 1409.5 95.634C1407.53 98.574 1405.45 101.69 1403.29 105.197C1400.91 109.054 1398.82 112.668 1396.84 116.088C1389.54 128.734 1383.76 138.731 1370.34 148.593C1362.28 154.51 1357.24 157.37 1347.93 160.767C1342.25 162.838 1338.3 163.552 1333.3 164.455C1331.77 164.73 1330.14 165.024 1328.34 165.379C1321.15 166.794 1309.85 168.367 1309.85 168.367Z" fill="#212035"/>
<path fill-rule="evenodd" clip-rule="evenodd" d="M919.987 27V60.0839C919.987 60.0839 929.099 52.0626 936.2 49.6364C945.68 46.3973 961.8 49.6364 961.8 49.6364C961.8 49.6364 978.559 53.1954 986.547 60.0839C994.884 67.2736 997.857 73.8124 1001.05 84.4615C1004.86 97.1404 1005.76 106.055 1001.05 118.416C996.776 129.658 981.427 141.923 981.427 141.923C981.427 141.923 970.09 149.601 961.8 151.5C953.671 153.362 948.617 153.263 940.467 151.5C931.86 149.638 919.987 141.923 919.987 141.923C919.987 141.923 920.422 147.786 919.987 151.5C919.033 159.634 915.792 164.37 911.793 170.213C910.596 171.962 909.332 173.81 908.04 175.878C902.81 184.252 899.437 188.755 892.68 195.902C880.739 208.533 856.84 222.021 856.84 222.021C856.84 222.021 838.603 231.802 826.12 235.951C816.667 239.093 801.373 242.045 801.373 242.045V250.752L746.76 257.717L665.693 263.811V250.752H619.613C619.613 250.752 593.788 243.782 578.653 235.951C576.544 234.86 574.544 233.857 572.633 232.899C561.925 227.528 554.021 223.564 545.373 213.315C536.696 203.03 534.038 194.388 530.466 182.779C529.794 180.594 529.09 178.304 528.307 175.878C524.015 162.581 522.885 153.095 521.506 141.506C521.012 137.361 520.487 132.947 519.773 127.993C516.557 105.667 513.8 70.5315 513.8 70.5315L919.987 27ZM925.107 109.71C925.955 96.4387 922.547 75.7552 922.547 75.7552L931.933 67.9196C931.933 67.9196 944.245 63.4163 952.413 63.5664C958.165 63.6722 961.527 64.1367 966.92 66.1783C976.045 69.6325 981.942 73.1013 986.547 81.8497C990.072 88.5475 990.594 93.4284 989.96 101.003C989.222 109.811 986.793 114.959 981.427 121.899C975.643 129.377 970.843 133.457 961.8 135.829C955.717 137.424 951.803 136.855 945.849 135.99C945.485 135.937 945.113 135.883 944.733 135.829C935.654 134.523 922.547 127.993 922.547 127.993C922.547 127.993 924.647 116.907 925.107 109.71Z" fill="#212035"/>
<path fill-rule="evenodd" clip-rule="evenodd" d="M141.875 -83.9218L127.95 -16.5069C127.95 -16.5069 122.634 -22.3256 119.474 -26.2657C114.89 -31.9791 112.105 -36.8237 109.23 -41.8234C106.87 -45.9259 104.451 -50.1328 100.93 -55.0096C99.7343 -56.6656 98.8433 -58.2354 98.0025 -59.717C96.2849 -62.7432 94.7762 -65.4014 91.3057 -67.6749C86.5313 -70.8026 82.9108 -71.1021 77.2267 -71.4729C73.4209 -71.7212 71.2272 -71.5409 67.4738 -70.8182C56.9518 -68.7924 51.6184 -63.6564 44.2021 -56.5147C43.5775 -55.9132 42.9381 -55.2975 42.2796 -54.6682C32.7396 -45.5515 28.873 -38.6027 23.3555 -26.5457C17.883 -14.587 16.6225 -6.45222 14.7593 5.57205C14.549 6.92885 14.3311 8.33516 14.0986 9.80208C13.8029 11.6677 13.5114 13.4197 13.2333 15.0912C11.5915 24.9605 10.4166 32.0228 11.5929 43.0956C12.8933 55.3369 13.7561 61.7085 18.5303 73.0011L18.9508 73.9968C22.7499 82.9968 25.6184 89.7923 32.924 96.439C40.5251 103.355 46.9761 104.826 57.0228 106.756C66.4263 108.562 72.0902 108.042 81.5597 106.486C94.0386 104.435 111.919 94.9614 111.919 94.9614C111.919 94.9614 105.497 116.548 104.515 130.802L104.501 131.009C103.738 142.077 103.288 148.611 105.583 159.495C107.854 170.27 109.845 176.549 115.917 185.654C120.486 192.504 123.724 196.078 130.22 201.065C137.449 206.615 142.576 208.459 150.948 211.471L151.627 211.715C162.328 215.567 180.138 217.605 180.138 217.605L181.996 234.004L317.841 262.065L324.368 247.398C324.368 247.398 352.316 253.16 370.045 250.605C372.367 250.27 374.445 250.018 376.38 249.784C383.098 248.971 388.1 248.365 395.639 245.215C405.095 241.263 411.519 237.731 418.804 230.425C424.706 224.505 430.405 212.357 430.405 212.357L477.294 -14.6354L141.875 -83.9218ZM48.4201 266.916L23.6013 209.293L495.703 306.814L431.636 346.076L48.4201 266.916ZM126.021 26.6931L116.326 73.6275C116.326 73.6275 104.864 79.5155 97.0868 82.1102C88.3853 85.013 83.3007 86.4426 74.1841 87.1667C67.9617 87.6609 65.0681 87.544 59.5762 85.9287C53.891 84.2565 50.8126 82.2217 46.2023 78.7173C40.3051 74.2345 38.7338 68.9846 36.8254 62.6084C36.2771 60.7766 35.701 58.8518 34.9865 56.8256C31.0964 45.7932 29.8334 39.0103 29.7262 27.2665C29.5897 12.3062 31.309 3.34573 37.4823 -10.2811C42.1986 -20.6918 45.785 -26.4558 53.8479 -34.4832C55.3243 -35.953 56.5885 -37.5269 57.7985 -39.0334C61.0456 -43.0758 63.9027 -46.6328 69.4228 -46.392C73.0998 -46.2315 75.231 -44.7436 77.9556 -42.8412C78.5351 -42.4367 79.1414 -42.0134 79.7951 -41.5801C84.9515 -38.1625 87.3269 -34.3408 90.0598 -29.9439C91.3277 -27.904 92.6726 -25.7402 94.4079 -23.4356C108.309 -4.97298 126.021 26.6931 126.021 26.6931Z" fill="#212035"/>
<path fill-rule="evenodd" clip-rule="evenodd" d="M466.624 772.785L445.5 1211.43L145.747 1194.47L151.782 1020.37C151.782 1020.37 103.971 995.581 79.3588 970.628C64.8977 955.967 56.5809 947.294 46.1647 928.799C44.4753 925.799 42.7964 923.117 41.2049 920.574C35.9803 912.228 31.6974 905.386 31.0765 893.752C30.4203 881.46 33.1887 874.226 38.1176 863.228C44.0024 850.097 49.306 843.024 60.2471 834.965C77.2076 822.471 91.405 823.277 111.547 825.92C133.732 828.832 163.853 851.923 163.853 851.923V758.088L466.624 772.785ZM105.512 863.228C126.874 866.966 155.806 889.23 155.806 889.23L151.782 983.064C151.782 983.064 117.907 965.646 100.482 948.018C96.9119 944.405 93.9254 941.685 91.2351 939.235C85.1923 933.731 80.6441 929.589 74.3294 919.754C73.3879 918.288 72.3997 916.813 71.402 915.324C66.0478 907.333 60.4192 898.933 60.2471 889.23C60.0362 877.345 65.3206 869.457 74.3294 863.228C82.3205 857.703 89.3654 859.441 97.6816 861.494C100.159 862.105 102.75 862.745 105.512 863.228Z" fill="#212035"/>
<path fill-rule="evenodd" clip-rule="evenodd" d="M27.8126 768.574L-21.0194 728.022L75.4236 700.525C75.4236 700.525 56.4488 691.685 45.3344 684.229C32.9586 675.927 25.7557 671.07 15.9962 659.728C6.55275 648.754 2.63091 640.256 -2.81235 628.462C-3.76882 626.39 -4.77226 624.216 -5.8609 621.908C-14.179 604.279 -18.3913 593.93 -22.7956 574.926C-27.2761 555.593 -28.8971 544.227 -28.245 524.414C-27.6148 505.265 -20.0124 476.116 -20.0124 476.116L249.406 364.281L281.247 388.206C281.247 388.206 287.507 373.98 293.845 366.572C301.478 357.65 306.769 352.359 317.817 348.574C328.115 345.046 334.89 345.954 345.682 347.531C359.748 349.587 369.123 351.327 379.553 361.174C387.113 368.31 389.562 374.869 392.904 383.819C393.413 385.181 393.942 386.599 394.514 388.083C398.907 399.491 400.735 406.404 401.521 418.603C402.232 429.64 402.348 436.233 399.212 446.799C395.264 460.103 391.377 468.32 380.663 476.94C373.691 482.547 368.966 485.714 360.139 487.006C353.548 487.971 343.12 485.559 343.12 485.559C343.12 485.559 347.699 501.412 349.154 511.84C351.17 526.289 351.783 534.742 349.821 549.171C347.814 563.92 345.667 572.44 338.863 585.6C332.811 597.304 327.739 603.034 318.701 612.541C309.903 621.795 293.644 633.466 293.644 633.466L441.618 593.245L407.995 657.19L27.8126 768.574ZM316.091 432.862C310.436 424.603 299.35 413.501 299.35 413.501C299.35 413.501 303.682 393.609 312.059 384.702C318.829 377.505 333.668 371.709 333.668 371.709C333.668 371.709 344.809 369.78 351.326 372.117C360.747 375.494 363.909 382.774 367.669 391.432C368.483 393.305 369.325 395.243 370.264 397.22C375.944 409.177 379.101 417.116 377.855 430.283C377.823 430.617 377.792 430.948 377.762 431.275C376.914 440.311 376.303 446.824 370.012 453.503C364.14 459.738 358.623 461.809 350.128 462.531C341.485 463.265 328.604 456.763 328.604 456.763C328.604 456.763 322.036 441.545 316.091 432.862Z" fill="#212035"/>
</g>
<defs>
<clipPath id="clip0_2911_401">
<rect width="1440" height="834" fill="white"/>
</clipPath>
</defs>
</svg>
