<svg width="316" height="100" viewBox="0 0 316 100" fill="none" xmlns="http://www.w3.org/2000/svg">
<path d="M289.92 89.6009C246.251 99.2973 193.965 90.4482 152.764 95.3029C120.124 99.1489 65.9388 100.92 39.2959 86.183C27.5391 79.6797 27.2862 63.1571 30.2325 54.0625C35.3527 38.2576 45.8617 30.3225 67.2751 22.3723C89.5952 14.0855 147.248 12.4717 174.285 11.501C210.604 10.1971 252.046 5.81733 280.857 20.5614C301.203 30.9734 314 35.2882 314 46.4607C314 55.7554 307.615 69.778 291.773 74.8338C269.482 81.9471 247.971 81.574 223.327 86.183C172.927 95.6087 130.203 96.2668 77.126 91.1854C54.2454 88.9949 37.1381 87.3825 23.2804 77.9751C6.95885 66.895 5.4545 64.2383 2.255 49.5354C0.898102 43.2999 4.97339 32.1038 14.0759 28.484C37.4023 19.2076 61.5892 12.1232 88.5512 7.7517C144.967 -1.39526 194.589 -0.615133 244.143 17.277C273.435 27.8533 293.229 25.3422 305.531 43.5135C311.688 52.6075 303.726 73.4961 294.948 79.7991C291.78 82.0738 277.897 88.2703 256.949 89.6009C243.706 89.6009 197.223 89.6742 180.731 92.2688" stroke="black" stroke-width="3" stroke-linecap="round"/>
</svg>
