<svg width="548" height="420" viewBox="0 0 548 420" fill="none" xmlns="http://www.w3.org/2000/svg">
<path fill-rule="evenodd" clip-rule="evenodd" d="M112.169 9.58506V78.4232C112.169 78.4232 105.786 73.8002 101.894 70.5809C96.2495 65.9128 92.5412 61.7319 88.7142 57.4172C85.574 53.8768 82.3539 50.2463 77.9187 46.1826C76.4127 44.8027 75.2227 43.4456 74.0994 42.1648C71.8052 39.5486 69.79 37.2506 65.9312 35.7261C60.6228 33.629 57.0167 34.068 51.375 34.8548C47.5977 35.3815 45.4858 36.0019 41.9562 37.4689C32.0616 41.5814 27.8775 47.6901 22.0593 56.1844C21.5692 56.8999 21.0676 57.6322 20.55 58.3817C13.0515 69.2398 10.6706 76.8271 7.70625 89.751C4.76611 102.57 5.17728 110.791 5.78504 122.944C5.85362 124.315 5.9247 125.736 5.99375 127.22C6.08157 129.107 6.15056 130.882 6.21637 132.575C6.60498 142.572 6.88306 149.726 10.275 160.332C14.0249 172.057 16.1588 178.122 23.1187 188.216L23.732 189.106C29.2732 197.151 33.4571 203.226 41.9562 208.257C50.7992 213.492 57.4145 213.628 67.6437 213.485C77.2182 213.352 82.6598 211.697 91.6187 208.257C103.425 203.724 119.019 190.83 119.019 190.83C119.019 190.83 117.097 213.27 119.019 227.427L119.047 227.633C120.539 238.627 121.42 245.116 125.869 255.311C130.273 265.403 133.493 271.15 141.281 278.838C147.141 284.622 151.035 287.467 158.406 291.037C166.609 295.01 172.002 295.779 180.811 297.035L181.525 297.137C192.784 298.745 210.637 297.137 210.637 297.137L215.775 312.822H354.487L357.912 297.137C357.912 297.137 386.448 297.126 403.294 291.037C405.5 290.24 407.484 289.573 409.332 288.952C415.747 286.796 420.522 285.192 427.269 280.581C435.73 274.798 441.307 270.039 446.962 261.411C451.545 254.419 454.669 241.369 454.669 241.369V9.58506H112.169ZM91.6187 372.075L55.6562 320.664H537.725L482.925 372.075H91.6187ZM119.019 121.12V169.046C119.019 169.046 108.986 177.13 101.894 181.245C93.9594 185.848 89.2692 188.277 80.4875 190.83C74.4937 192.573 71.6363 193.044 65.9312 192.573C60.0253 192.085 56.5988 190.715 51.375 188.216C44.6929 185.019 42.092 180.195 38.9331 174.337C38.0257 172.654 37.0721 170.885 35.9625 169.046C29.921 159.028 27.3119 152.641 24.8312 141.162C21.6711 126.538 21.5422 117.415 24.8312 102.822C27.344 91.672 29.6902 85.3016 35.9625 75.8091C37.111 74.071 38.0307 72.2739 38.911 70.5538C41.2731 65.9381 43.3516 61.8767 48.8062 60.9959C52.4397 60.4091 54.8278 61.4352 57.881 62.747C58.5303 63.026 59.2097 63.3179 59.9375 63.61C65.6787 65.9138 68.7781 69.1759 72.344 72.9291C73.9983 74.6703 75.7531 76.5172 77.9187 78.4232C95.2673 93.692 119.019 121.12 119.019 121.12Z" fill="#212035"/>
</svg>
