<svg width="492" height="237" viewBox="0 0 492 237" fill="none" xmlns="http://www.w3.org/2000/svg">
<path fill-rule="evenodd" clip-rule="evenodd" d="M406.987 0V33.0839C406.987 33.0839 416.099 25.0626 423.2 22.6364C432.68 19.3973 448.8 22.6364 448.8 22.6364C448.8 22.6364 465.559 26.1954 473.547 33.0839C481.884 40.2736 484.857 46.8124 488.053 57.4615C491.859 70.1404 492.756 79.0545 488.053 91.4161C483.776 102.658 468.427 114.923 468.427 114.923C468.427 114.923 457.09 122.601 448.8 124.5C440.671 126.362 435.617 126.263 427.467 124.5C418.86 122.638 406.987 114.923 406.987 114.923C406.987 114.923 407.422 120.786 406.987 124.5C406.034 132.634 402.792 137.37 398.793 143.213C397.596 144.962 396.332 146.81 395.04 148.878C389.81 157.252 386.437 161.755 379.68 168.902C367.739 181.533 343.84 195.021 343.84 195.021C343.84 195.021 325.603 204.802 313.12 208.951C303.667 212.093 288.373 215.045 288.373 215.045V223.752L233.76 230.717L152.693 236.811V223.752H106.613C106.613 223.752 80.7878 216.782 65.6533 208.951C63.544 207.86 61.5441 206.857 59.6335 205.899C48.9252 200.528 41.0206 196.564 32.3733 186.315C23.6964 176.03 21.0378 167.388 17.4664 155.779C16.7942 153.594 16.0897 151.304 15.3067 148.878C11.0146 135.581 9.88545 126.095 8.50589 114.506C8.01247 110.361 7.48701 105.947 6.77333 100.993C3.55699 78.6669 0.8 43.5315 0.8 43.5315L406.987 0ZM412.107 82.7098C412.955 69.4387 409.547 48.7552 409.547 48.7552L418.933 40.9196C418.933 40.9196 431.245 36.4163 439.413 36.5664C445.165 36.6722 448.527 37.1367 453.92 39.1783C463.045 42.6325 468.942 46.1013 473.547 54.8497C477.072 61.5475 477.594 66.4284 476.96 74.0035C476.222 82.8115 473.793 87.9585 468.427 94.8986C462.643 102.377 457.843 106.457 448.8 108.829C442.717 110.424 438.803 109.855 432.849 108.99C432.485 108.937 432.113 108.883 431.733 108.829C422.654 107.523 409.547 100.993 409.547 100.993C409.547 100.993 411.647 89.907 412.107 82.7098Z" fill="#212035"/>
</svg>
