<svg width="434" height="327" viewBox="0 0 434 327" fill="none" xmlns="http://www.w3.org/2000/svg">
<path fill-rule="evenodd" clip-rule="evenodd" d="M0.386029 273.653L38.8511 323.973L362.812 326.575L397.858 273.653H291.011L306.397 197.306L359.393 176.484C359.393 176.484 373.967 168.249 381.618 160.868C392.033 150.819 396.005 141.447 400.838 130.042C402.495 126.133 404.253 121.985 406.406 117.489C408.233 113.674 409.989 110.109 411.665 106.709C420.953 87.856 427.752 74.056 430.34 50.6849C430.738 47.0891 431.446 43.759 432.119 40.5904C433.905 32.1884 435.449 24.9224 430.34 16.8493C428.422 13.819 424.357 9.90868 424.357 9.90868C424.357 9.90868 413.271 13.7791 406.406 16.8493C371.007 32.6817 329.476 80.1827 329.476 80.1827L343.153 0.365297H55.0919L103.814 273.653H0.386029ZM314.09 166.073L324.347 111.416C324.347 111.416 358.614 68.726 387.601 50.6849C389.794 49.3201 391.63 47.896 393.363 46.5517C397.266 43.5243 400.646 40.9019 406.406 40.274C407.039 40.205 407.621 40.0849 408.174 39.9709C409.652 39.6662 410.921 39.4045 412.39 40.274C414.73 41.6595 414.022 44.077 413.24 46.752C412.865 48.0323 412.473 49.3716 412.39 50.6849C411.556 63.8281 407.581 71.9994 402.652 82.1332C401.124 85.2743 399.505 88.604 397.858 92.3288C396.048 96.4262 394.493 100.247 393.022 103.864C387.583 117.236 383.284 127.808 371.36 139.178C364.205 146.001 359.611 149.439 350.846 153.927C345.501 156.664 341.674 157.85 336.833 159.351C335.354 159.81 333.78 160.297 332.04 160.868C325.103 163.141 314.09 166.073 314.09 166.073Z" fill="#212035"/>
</svg>
