<svg width="484" height="346" viewBox="0 0 484 346" fill="none" xmlns="http://www.w3.org/2000/svg">
<path fill-rule="evenodd" clip-rule="evenodd" d="M39.5032 345.426L0.983819 294.975L101.134 289.756C101.134 289.756 84.6189 276.894 75.4547 267.141C65.2504 256.28 59.3169 249.935 52.343 236.696C45.5949 223.887 43.674 214.727 41.0079 202.014C40.5394 199.78 40.048 197.437 39.5032 194.944C35.3411 175.9 33.5514 164.871 33.5113 145.364C33.4706 125.519 34.434 114.078 39.5032 94.9132C44.4025 76.3908 58.335 49.6818 58.335 49.6818L345.947 0.971073L371.626 31.4153C371.626 31.4153 380.911 18.9506 388.746 13.1488C398.182 6.16084 404.523 2.18755 416.138 0.971073C426.964 -0.16283 433.364 2.23793 443.529 6.19008C456.779 11.3416 465.526 15.1351 473.489 27.0661C479.26 35.7134 480.179 42.6535 481.434 52.1246C481.625 53.5663 481.824 55.0666 482.049 56.6405C483.777 68.7426 484.012 75.8895 482.049 87.9545C480.272 98.8711 478.909 105.323 473.489 114.919C466.664 127.002 461.037 134.142 448.665 140.145C440.616 144.05 435.301 146.08 426.409 145.364C419.77 144.829 410.146 140.145 410.146 140.145C410.146 140.145 411.061 156.62 410.146 167.11C408.878 181.643 407.583 190.019 402.442 203.643C397.186 217.569 393.187 225.393 383.61 236.696C375.093 246.749 368.867 251.199 357.93 258.442C347.285 265.493 328.827 273.229 328.827 273.229L482.049 267.141L434.969 321.94L39.5032 345.426ZM395.594 82.7355C391.93 73.4209 383.61 60.1198 383.61 60.1198C383.61 60.1198 392.283 41.7012 402.442 34.8946C410.65 29.3951 426.409 27.0661 426.409 27.0661C426.409 27.0661 437.7 27.6796 443.529 31.4153C451.955 36.8156 453.408 44.6179 455.136 53.8982C455.509 55.906 455.896 57.983 456.369 60.1198C459.23 73.0449 460.53 81.4883 456.369 94.0434C456.263 94.3618 456.159 94.6771 456.056 94.9892C453.208 103.606 451.155 109.817 443.529 114.919C436.411 119.682 430.57 120.466 422.129 119.269C413.541 118.05 402.442 108.831 402.442 108.831C402.442 108.831 399.446 92.5292 395.594 82.7355Z" fill="#212035"/>
</svg>
