<svg width="421" height="321" viewBox="0 0 421 321" fill="none" xmlns="http://www.w3.org/2000/svg">
<path fill-rule="evenodd" clip-rule="evenodd" d="M0 43.9447V23.0624C0 23.0624 3.77925 16.2073 7.71176 13.4913C10.6918 11.4331 16.2804 10.0109 16.2804 10.0109L101.11 77.8786L84.8294 0.439837H370.165L323.037 271.91H420.72L381.304 320.636H69.4059L33.4176 271.91H139.669L125.102 191.861C125.102 191.861 81.1223 179.396 59.9804 160.538C53.0451 154.352 43.7 143.136 43.7 143.136L12.8529 86.5795L0 43.9447ZM118.247 160.538L108.822 108.332L101.11 98.7609L80.5451 77.8786L40.2725 50.9055C40.2725 50.9055 30.5226 41.6873 23.9922 43.9447C20.1777 45.2633 17.3661 46.9652 16.2804 50.9055C14.7798 56.3517 23.9922 63.0869 23.9922 63.0869L52.2686 121.383L69.4059 145.746C69.4059 145.746 82.746 156.224 92.5412 160.538C102.073 164.735 118.247 167.499 118.247 167.499V160.538Z" fill="#212035"/>
</svg>
