<svg width="513" height="511" viewBox="0 0 513 511" fill="none" xmlns="http://www.w3.org/2000/svg">
<path fill-rule="evenodd" clip-rule="evenodd" d="M448.624 32.7854L427.5 471.431L127.747 454.473L133.782 280.372C133.782 280.372 85.971 255.581 61.3588 230.628C46.8977 215.967 38.5809 207.294 28.1647 188.799C26.4753 185.799 24.7964 183.117 23.2049 180.574C17.9803 172.228 13.6974 165.386 13.0765 153.752C12.4203 141.46 15.1887 134.226 20.1176 123.228C26.0024 110.097 31.306 103.024 42.2471 94.9646C59.2076 82.4708 73.405 83.2772 93.5471 85.9204C115.732 88.8315 145.853 111.923 145.853 111.923V18.0885L448.624 32.7854ZM87.5118 123.228C108.874 126.966 137.806 149.23 137.806 149.23L133.782 243.064C133.782 243.064 99.9072 225.646 82.4824 208.018C78.9119 204.405 75.9254 201.685 73.2351 199.235C67.1923 193.731 62.6441 189.589 56.3294 179.754C55.3879 178.288 54.3997 176.813 53.402 175.324C48.0478 167.333 42.4192 158.933 42.2471 149.23C42.0362 137.345 47.3206 129.457 56.3294 123.228C64.3205 117.703 71.3654 119.441 79.6816 121.494C82.1592 122.105 84.7498 122.745 87.5118 123.228Z" fill="#212035"/>
</svg>
