<svg width="498" height="166" viewBox="0 0 498 166" fill="none" xmlns="http://www.w3.org/2000/svg">
<path d="M0.587772 65.5773C7.67697 86.8771 8.3539 115.102 8.3539 115.102C8.3539 115.102 35.3739 128.469 66.9474 125.595L55.7895 47.1466C27.9441 50.1572 8.3539 36.821 8.3539 36.821C8.3539 36.821 -2.62097 55.9365 0.587772 65.5773Z" fill="#CFA187"/>
<path fill-rule="evenodd" clip-rule="evenodd" d="M55.7895 47.1466C67.7031 45.8585 81.1154 41.7296 94.7175 37.5422C113.715 31.6939 133.082 25.7317 149.254 27.2356C172.604 29.4071 208.054 36.821 208.054 36.821C208.054 36.821 207.476 66.9531 211.383 86.3457C213.866 98.6711 208.054 115.102 208.054 115.102C208.054 115.102 172.542 108.307 149.254 106.315C135.815 105.166 121.091 109.97 106.183 115.102L55.7895 47.1466Z" fill="#B68467"/>
<path d="M55.7895 47.1466L66.9474 125.595C78.9403 124.503 91.482 120.175 103.934 115.878C104.684 115.619 105.434 115.36 106.183 115.102L55.7895 47.1466Z" fill="#CFA187"/>
<path d="M289.5 94.733C289.5 94.733 306.042 100.607 317 103.424C335.289 108.125 346.018 109.635 365 111.246C367.864 111.489 370.568 111.737 373.155 111.974C389.523 113.474 401.189 114.544 419 111.246C437.657 107.792 447.774 103.451 464 94.733C472.67 90.0747 477.323 87.0897 485 81.2618L484.25 75.6126C484.25 75.6126 465.391 81.4691 453 84.3037C435.333 88.345 425.188 90.2016 407 91.6911C388.655 93.1935 377.845 92.6721 360.157 91.819L360.146 91.8185C359.281 91.7767 358.4 91.7342 357.5 91.6911C339.264 90.8172 329.037 89.8422 311 87.3456C298.029 85.5501 278 81.6963 278 81.6963L258.5 76.4817V78.6544L269 83L282 88.2147L289.5 94.733Z" fill="#A1C4B3"/>
<path d="M258.5 66.0524V70.3979C258.5 70.3979 274.957 69.9044 285.5 69.5288C295.58 69.1697 303.438 68.8053 311.299 68.4408C319.128 68.0778 326.962 67.7145 337 67.356C353.789 66.7564 363.204 66.4738 380 66.0524C385.037 65.926 389.425 65.7832 393.545 65.6492C403.478 65.3262 411.852 65.0538 424 65.1832C431.799 65.2663 437.999 65.6749 444.083 66.0758C451.113 66.539 457.989 66.9921 467 66.9215C473.446 66.8709 483.5 66.4869 483.5 66.4869V63.0105L473.5 58.2304C473.5 58.2304 464.888 53.8367 459 51.712C449.06 48.1252 442.721 47.2489 432.478 45.8328L432.474 45.8322C431.991 45.7655 431.5 45.6977 431 45.6283C420.723 44.2028 414.13 44.1082 404.91 43.9758L404.909 43.9757C404.906 43.9757 404.903 43.9757 404.9 43.9756C403.202 43.9512 401.415 43.9256 399.5 43.8901C380.938 43.5459 352 45.6283 352 45.6283C352 45.6283 328.924 47.5231 314.5 50.4084C305.024 52.3038 298.769 54.1624 291.142 56.4283C288.353 57.257 285.38 58.1402 282 59.0995C272.784 61.7148 258.5 66.0524 258.5 66.0524Z" fill="#A1C4B3"/>
<path d="M485 53.0157C476.755 43.9445 470.317 39.969 459 33.8953C441.978 24.7595 430.201 22.581 410.5 19.555C388.003 16.0995 374.378 15.5587 352 19.555C341.423 21.4438 334.647 23.833 326.264 26.7888C323.43 27.7883 320.411 28.8526 317 29.9843C305.142 33.9179 287 40.8482 287 40.8482L289.5 47.3665C289.5 47.3665 302.432 41.9728 311 39.1099C335.139 31.0445 349.721 27.8664 375.5 26.0733C377.246 25.9518 378.919 25.83 380.534 25.7124C394.754 24.6766 404.41 23.9733 419.5 26.7888C435.144 29.7076 443.801 33.9573 456.868 40.3724C458.041 40.9479 459.248 41.5408 460.5 42.1518C470.156 46.8658 484.25 55.623 484.25 55.623L485 53.0157Z" fill="#A1C4B3"/>
<path d="M484.25 75.6126C484.25 75.6126 483.611 72.182 483.5 69.9633C483.432 68.607 483.5 66.4869 483.5 66.4869C483.5 66.4869 473.446 66.8709 467 66.9215C457.989 66.9921 451.113 66.539 444.083 66.0758C437.999 65.6749 431.799 65.2663 424 65.1832C411.852 65.0538 403.478 65.3262 393.545 65.6492C389.425 65.7832 385.037 65.926 380 66.0524C363.204 66.4738 353.789 66.7564 337 67.356C326.962 67.7145 319.128 68.0778 311.299 68.4408C303.438 68.8053 295.58 69.1697 285.5 69.5288C274.957 69.9044 258.5 70.3979 258.5 70.3979V75.6126V76.4817L278 81.6963C278 81.6963 298.029 85.5501 311 87.3456C329.037 89.8422 339.264 90.8172 357.5 91.6911C358.4 91.7342 359.281 91.7767 360.146 91.8185L360.157 91.819C377.845 92.6721 388.655 93.1935 407 91.6911C425.188 90.2016 435.333 88.345 453 84.3037C465.391 81.4691 484.25 75.6126 484.25 75.6126Z" fill="#F5F5EF"/>
<path d="M281 53.8848L258.5 64.3141V66.0524C258.5 66.0524 272.784 61.7148 282 59.0995C285.38 58.1402 288.353 57.257 291.142 56.4283C298.769 54.1624 305.024 52.3038 314.5 50.4084C328.924 47.5231 352 45.6283 352 45.6283C352 45.6283 380.938 43.5459 399.5 43.8901C401.415 43.9256 403.202 43.9512 404.9 43.9756L404.909 43.9757L404.91 43.9758C414.13 44.1082 420.723 44.2028 431 45.6283C431.5 45.6977 431.991 45.7655 432.474 45.8322L432.478 45.8328C442.721 47.2489 449.06 48.1252 459 51.712C464.888 53.8367 473.5 58.2304 473.5 58.2304L483.5 63.0105C483.5 63.0105 483.164 60.0742 483.5 58.2304C483.689 57.1937 484.25 55.623 484.25 55.623C484.25 55.623 470.156 46.8658 460.5 42.1518C459.248 41.5408 458.041 40.9479 456.868 40.3724C443.801 33.9573 435.144 29.7076 419.5 26.7888C404.41 23.9733 394.754 24.6766 380.534 25.7124C378.919 25.83 377.246 25.9518 375.5 26.0733C349.721 27.8664 335.139 31.0445 311 39.1099C302.432 41.9728 289.5 47.3665 289.5 47.3665L281 53.8848Z" fill="#F5F5EF"/>
<path d="M488.5 83.4346C488.5 83.4346 493.159 77.1478 494 72.5707C494.523 69.7218 494.63 68.0158 494 65.1832C493.078 61.0367 490.756 58.767 487.959 56.0332C487.015 55.1103 486.017 54.1345 485 53.0157L484.25 55.623C484.25 55.623 483.689 57.1937 483.5 58.2304C483.164 60.0742 483.5 63.0105 483.5 63.0105V66.4869C483.5 66.4869 483.432 68.607 483.5 69.9633C483.611 72.182 484.25 75.6126 484.25 75.6126L485 81.2618L486.5 85.2852C487.763 84.1306 488.5 83.4346 488.5 83.4346Z" fill="#A46947"/>
<path d="M252 76.4817C252 76.4817 248.237 77.611 246 78.6544C242.559 80.2597 240.68 81.4008 238 83.8691C234.16 87.4054 232.344 90.0128 231 94.733C229.781 99.0161 230.235 101.67 231 106.031C231.086 106.521 231.162 106.986 231.236 107.433C231.711 110.328 232.056 112.426 234 115.157C235.516 117.287 237.018 118.342 238.971 119.716C239.451 120.053 239.958 120.41 240.5 120.806C241.23 121.341 241.844 121.879 242.424 122.388C243.887 123.669 245.137 124.765 247.5 125.152C249.983 125.558 251.63 124.994 253.773 124.261C254.163 124.127 254.569 123.988 255 123.848C257.921 122.9 259.617 121.661 261.592 120.22C262.464 119.583 263.39 118.907 264.5 118.199C269.982 114.701 278 108.639 278 108.639L285.5 101.251L289.5 94.733L282 88.2147L269 83L258.5 78.6544L252 76.4817Z" fill="#A46947"/>
<path d="M287 40.8482C287 40.8482 271.752 20.3246 256.5 19.555L256.281 19.5439C248.101 19.1307 241.162 18.7801 236 24.3351C233.546 26.9758 233.043 29.2434 232.369 32.2741L232.326 32.469C232.224 32.9257 232.118 33.3999 232 33.8953C230.693 39.379 230.481 42.7933 232 48.2356C233.441 53.3984 234.529 56.7809 239 60.4031C242.386 63.1462 249.5 65.1832 249.5 65.1832H252L258.5 64.3141L281 53.8848L289.5 47.3665L287 40.8482Z" fill="#A46947"/>
<path d="M252 65.1832V76.4817L258.5 78.6544V76.4817V75.6126V70.3979V66.0524V64.3141L252 65.1832Z" fill="#B68467"/>
<path fill-rule="evenodd" clip-rule="evenodd" d="M323.5 113.853C308.319 109.794 285.5 101.251 285.5 101.251L289.5 94.733C289.5 94.733 306.042 100.607 317 103.424C335.289 108.125 346.018 109.635 365 111.246C367.864 111.489 370.568 111.737 373.155 111.974C389.523 113.474 401.189 114.544 419 111.246C437.657 107.792 447.774 103.451 464 94.733C472.67 90.0747 477.323 87.0897 485 81.2618L486.5 85.2852C482.265 89.1569 472.115 98.1856 464 103.424C455.559 108.873 450.591 111.845 441 115.592C434.579 118.1 424 120.806 424 120.806C424 120.806 402.414 123.938 388.5 123.848C375.558 123.765 355.5 120.806 355.5 120.806C355.5 120.806 335.812 117.146 323.5 113.853Z" fill="#F5F5EF"/>
<path fill-rule="evenodd" clip-rule="evenodd" d="M355.5 126.455V120.806C355.5 120.806 375.558 123.765 388.5 123.848C402.414 123.938 424 120.806 424 120.806L421.5 130.801C421.5 130.801 421.273 137.816 419 141.665C416.964 145.114 414.655 146.706 411.457 148.91C410.991 149.232 410.506 149.566 410 149.921C407.262 151.844 402.5 154.267 402.5 154.267C402.5 154.267 387.831 155.03 378.5 154.267C376.95 154.14 375.561 154.114 374.253 154.089C371.083 154.029 368.384 153.978 365 152.529C361.635 151.088 357.5 147.314 357.5 147.314L355.5 126.455Z" fill="#B9BA93"/>
<path d="M355.5 126.455C355.5 126.455 349.808 123.156 346 123.848C342.978 124.398 341.38 125.631 339.5 127.759C337.049 130.534 336.835 132.955 337 136.45C337.142 139.455 339.5 143.838 339.5 143.838C339.5 143.838 342.255 146.357 344.5 147.314C349.058 149.257 357.5 147.314 357.5 147.314L355.5 126.455Z" fill="#A46947"/>
<path d="M204.732 104.801C205.221 100.403 219.932 102.673 223.165 102.921C226.101 103.147 229.067 104.299 231.886 105.167C233.984 105.812 237.297 105.989 239.04 107.151" stroke="#C5A089" stroke-width="4" stroke-linecap="round"/>
<path d="M195.334 43.7058C203.139 43.7058 211.134 44.1753 218.858 43.2098C220.894 42.9553 223.106 41.4889 224.968 40.6511C227.796 39.3784 230.758 38.0174 233.636 36.8914C237.739 35.2858 241.481 32.8665 245.62 31.4868" stroke="#C5A089" stroke-width="4" stroke-linecap="round"/>
<path fill-rule="evenodd" clip-rule="evenodd" d="M139.148 60.7163C141.304 56.9001 147.312 53.1989 147.312 53.1989L157.953 56.5635L161.045 68.1132L142.837 64.7231C142.837 64.7231 141.722 68.38 142.791 70.5242C144.262 73.4745 147.268 74.2164 150.258 74.343C153.248 74.4696 158.592 73.251 158.592 73.251L159.323 78.3363C159.323 78.3363 154.654 80.1795 151.4 79.8735C147.456 79.5026 144.886 78.418 141.73 75.614C139.135 73.3076 137.307 71.5442 136.758 68.2636C136.299 65.519 137.261 63.9041 138.473 61.8693C138.692 61.5017 138.919 61.1204 139.148 60.7163ZM155.305 61.8803L146.089 59.6724L147.806 56.8568L154.228 58.7594L155.305 61.8803Z" fill="#FEFFD9"/>
<path fill-rule="evenodd" clip-rule="evenodd" d="M59.8828 74.1944L61.321 81.9805L70.9607 80.1389L74.888 93.7324L78.6948 91.9765L72.7467 72.279L69.1141 73.268L69.795 76.4468L63.8914 77.7261L62.0612 71.6653L59.3218 72.2525L59.8828 74.1944Z" fill="#FEFFD9"/>
<path d="M173.468 57.3364C178.132 56.7516 183.87 62.9062 183.87 62.9062L181.612 66.3461C181.612 66.3461 177.156 61.3694 173.488 61.9857C171.315 62.3511 169.308 63.6242 168.396 65.5405C166.807 68.8811 167.135 71.4402 168.846 75.036C169.928 77.3082 171.443 78.1279 174.067 78.308C176.611 78.4826 182.82 73.9926 182.82 73.9926L183.992 77.8859C183.992 77.8859 178.032 82.7025 173.669 82.1083C169.866 81.5903 168.025 80.8131 165.939 77.8516C162.777 73.3616 161.955 66.9489 164.963 62.3626C166.978 59.2901 169.597 57.8218 173.468 57.3364Z" fill="#FEFFD9"/>
<path d="M190.871 84.1529L191.697 65.2417L185.409 64.6438L185.306 59.7293L206.34 62.0356L205.954 67.057L196.414 65.6901L195.871 84.6529L190.871 84.1529Z" fill="#FEFFD9"/>
<path fill-rule="evenodd" clip-rule="evenodd" d="M11.6518 81.6992L15.9706 92.4978L19.0785 92.0776L16.7319 86.0488L31.316 88.2066L26.2369 92.9227L30.0601 94.0174L38.541 86.5244L33.6235 85.642C33.6235 85.642 36.8998 72.7472 31.4077 69.2566C28.7444 67.5638 26.5389 67.0298 23.4405 67.715C17.1736 69.1007 16.9878 82.6567 16.9878 82.6567L11.6518 81.6992ZM28.6143 72.757C32.8196 75.0724 29.5431 84.9097 29.5431 84.9097L20.3359 83.2575C20.3359 83.2575 20.1499 71.9451 25.0183 71.8331C26.4704 71.7996 27.3478 72.0597 28.6143 72.757Z" fill="#FEFFD9"/>
<path fill-rule="evenodd" clip-rule="evenodd" d="M39.0007 96.445L43.2474 77.9064C43.2474 77.9064 46.9604 73.0258 50.4031 73.0598C54.0718 73.0961 57.6328 78.7153 57.6328 78.7153L62.2051 96.568L56.6309 96.5384L54.6053 87.3693L46.1791 87.3246L44.8342 96.4759L39.0007 96.445ZM54.624 83.8281L46.1979 83.7834L46.9977 79.6358C46.9977 79.6358 49.0536 77.5338 50.3798 77.4558C51.8248 77.3708 53.8682 79.6723 53.8682 79.6723L54.624 83.8281Z" fill="#FEFFD9"/>
<path fill-rule="evenodd" clip-rule="evenodd" d="M80.502 88.2643L77.6372 69.4625C77.6372 69.4625 79.2963 63.5587 82.5106 62.325C85.9358 61.0102 91.3129 64.9272 91.3129 64.9272L102.127 79.8495L96.9323 81.8709L91.6783 74.0882L83.8255 77.1438L85.9385 86.1488L80.502 88.2643ZM90.3941 70.788L82.5414 73.8436L81.7607 69.6924C81.7607 69.6924 82.9 66.9818 84.1047 66.4218C85.4174 65.8116 88.1637 67.2009 88.1637 67.2009L90.3941 70.788Z" fill="#FEFFD9"/>
<path d="M117.999 72C116.29 72 114.455 71.4406 112.999 71C111.543 70.5594 110.731 69.8536 109.655 69C108.61 68.1464 108.101 67.1901 107.499 66.0061C106.898 64.7945 106.996 63.542 106.996 62C106.996 60.403 107.335 59.3701 108 58.1585C108.664 56.9194 108.892 56.3261 110 55.5C111.139 54.6464 112.576 53.913 114 53.5C115.424 53.0594 116.396 52.5 117.915 52.5H118.152H124.846H125C126.709 52.5 127.188 53.0594 128.644 53.5C130.1 53.9406 130.956 54.6464 132 55.5C133.076 56.3261 134.43 56.947 135 58.1585C135.601 59.3701 136 60.4856 136 62C136 63.597 136.165 64.767 135.5 66.0061C134.835 67.2452 134.108 68.1464 133 69C131.892 69.8261 130.924 70.5594 129.5 71C128.076 71.413 127.019 72 125.5 72L123.999 72.1602V79.5H119.499V72.5L117.999 72ZM130.116 62.3301C130.116 60.7606 129.625 59.5353 128.644 58.6541C127.663 57.773 125.55 57.3049 123.999 57.2498V67.4104C125.55 67.3828 127.663 66.9147 128.644 66.0061C129.625 65.0974 130.116 63.8721 130.116 62.3301ZM112.93 62.2888C112.93 63.8583 113.405 65.0974 114.355 66.0061C115.336 66.9147 117.948 67.3828 119.499 67.4104V57.2498C117.948 57.3049 115.336 57.773 114.355 58.6541C113.405 59.5353 112.93 60.7468 112.93 62.2888Z" fill="#FEFFD9"/>
</svg>
