<svg width="1140" height="810" viewBox="0 0 1140 810" fill="none" xmlns="http://www.w3.org/2000/svg">
<path d="M1111.92 480.446V780.5H66.1875C66.1819 779.784 66.1739 778.815 66.1641 777.602C66.1406 774.72 66.1053 770.462 66.0557 764.955C65.9565 753.941 65.8021 737.931 65.582 717.95C65.1418 677.988 64.4381 622.136 63.3838 558.583C61.341 435.452 57.9819 283.393 52.6738 161.951L52.1543 150.297C51.8725 144.105 51.6692 137.913 51.4902 131.891L51.3174 125.931C50.8893 110.977 50.5018 97.3848 49.2539 88.124L49.1309 87.2412C47.5312 76.2306 44.7412 68.7025 40.7686 59.3105L38.9941 55.1553L38.2148 53.3408C34.9302 45.681 32.7615 40.617 29.1016 34.665L28.3486 33.4619C27.8141 32.6213 27.2477 31.7073 26.6562 30.7422L24.8135 27.7148V27.7139L24.8115 27.7109L23.3486 25.3027C23.156 24.9868 22.9247 24.6471 22.6836 24.3076L21.959 23.3145C21.599 22.8275 21.2861 22.4027 21.0527 22.0547L20.8467 21.7324C19.6751 19.777 18.5497 18.3073 17.3496 16.8555L16.1201 15.3916C15.456 14.6074 14.7582 13.784 13.999 12.8438L13.2178 11.8613C11.0458 9.08627 7.98721 5.84015 5.5 3.3125C4.85395 2.65595 4.24326 2.04501 3.69336 1.5H1138.5V41.9062L1137.14 69.9111L1137.14 69.916V69.9268C1137.14 69.9338 1137.14 69.9442 1137.14 69.958C1137.14 69.9863 1137.14 70.029 1137.13 70.085C1137.13 70.1968 1137.12 70.3633 1137.11 70.582C1137.09 71.0197 1137.06 71.6665 1137.02 72.5029C1136.95 74.1764 1136.84 76.6093 1136.7 79.6455C1136.42 85.7179 1136.02 94.2049 1135.57 103.863C1134.77 120.766 1133.77 141.255 1132.87 158.666L1132.48 165.92C1130.06 211.185 1128.13 241.515 1125.65 279.302L1122.96 320.402C1120.92 351.648 1118.16 391.646 1115.91 423.833C1114.78 439.926 1113.79 454.067 1113.07 464.184C1112.71 469.242 1112.43 473.294 1112.23 476.082C1112.13 477.476 1112.05 478.554 1112 479.283C1111.98 479.648 1111.96 479.925 1111.94 480.111C1111.94 480.204 1111.93 480.275 1111.93 480.322C1111.93 480.346 1111.92 480.364 1111.92 480.376C1111.92 480.382 1111.92 480.386 1111.92 480.389C1111.92 480.39 1111.92 480.392 1111.92 480.393C1111.92 480.393 1111.95 480.396 1113.42 480.5L1111.92 480.394L1111.92 480.446Z" fill="#D9D9D9" stroke="black" stroke-width="3"/>
<path d="M181 23L29.9668 62L120 68.5L181 23Z" fill="#B6B6B6"/>
<path fill-rule="evenodd" clip-rule="evenodd" d="M1082.08 23H181L120 68.5L29.9668 62C32.0848 65.9535 33.8248 69.9656 36.1579 75.3456C36.4057 75.9171 36.6602 76.504 36.9226 77.1079C41.754 88.2281 45.0042 95.8755 46.7686 107.885C48.0749 116.776 48.4649 130.246 48.8999 145.268C49.1206 152.891 49.3529 160.915 49.7224 168.942C60.7332 408.16 63.5069 782 63.5069 782H1119V104.41C1119 104.41 1109.23 82.5477 1100 70.5C1091.74 59.7246 1075.5 45.8345 1075.5 45.8345L1082.08 23Z" fill="white"/>
<path d="M1092.91 30.446C1089.14 26.9487 1082.08 23 1082.08 23L1075.5 45.8345C1075.5 45.8345 1091.74 59.7246 1100 70.5C1109.23 82.5477 1119 104.41 1119 104.41C1119 104.41 1117.51 81.5098 1113.09 67.6763C1110.27 58.8323 1108.35 53.8764 1103.74 45.8345C1103.19 44.8704 1102.67 43.9602 1102.19 43.0924C1099.45 38.2194 1097.47 34.6842 1092.91 30.446Z" fill="#B6B6B6"/>
<path d="M1080.08 24.5L1074.06 45.4189L1073.79 46.3467L1074.53 46.9746L1074.53 46.9766C1074.53 46.9781 1074.53 46.9802 1074.54 46.9834C1074.54 46.9898 1074.55 46.9999 1074.57 47.0127C1074.6 47.0386 1074.65 47.0775 1074.71 47.1289C1074.82 47.2318 1075 47.3853 1075.23 47.584C1075.69 47.9816 1076.35 48.5627 1077.17 49.2939C1078.81 50.7569 1081.09 52.8188 1083.62 55.2158C1088.39 59.7249 1094 65.3671 1098.03 70.4121L1098.81 71.4121C1103.34 77.3244 1108.04 85.7028 1111.63 92.6602C1113.42 96.1276 1114.92 99.2219 1115.97 101.448C1116.5 102.561 1116.92 103.456 1117.2 104.072C1117.33 104.351 1117.43 104.574 1117.5 104.732V780.5H64.9951C64.9897 779.81 64.9821 778.884 64.9727 777.73C64.9497 774.934 64.9149 770.801 64.8662 765.456C64.7689 754.766 64.6174 739.227 64.4014 719.833C63.9693 681.046 63.2781 626.837 62.2432 565.152C60.238 445.643 56.9417 298.056 51.7314 180.186L51.2207 168.873C50.9441 162.863 50.745 156.855 50.5693 151.01L50.3994 145.225C49.9792 130.712 49.5995 117.516 48.374 108.523L48.2529 107.667C46.6817 96.9728 43.9411 89.6602 40.041 80.543L38.2988 76.5098L37.5342 74.749C35.6659 70.4409 34.1564 66.9688 32.5215 63.6875L119.892 69.9961L120.449 70.0361L120.896 69.7021L181.497 24.5H1080.08ZM1082.98 25.2666C1083.63 25.6505 1084.42 26.13 1085.28 26.6768C1087.36 28.0038 1089.79 29.6698 1091.54 31.2334L1091.89 31.5449C1095.72 35.1031 1097.64 38.1166 1099.89 42.0703L1100.88 43.8262C1101.12 44.2598 1101.37 44.7061 1101.63 45.165L1102.44 46.5811C1106.7 54.0087 1108.62 58.7363 1111.15 66.5312L1111.66 68.1328C1113.83 74.9097 1115.29 83.9773 1116.21 91.415C1116.42 93.1055 1116.6 94.7072 1116.76 96.1719C1116.02 94.6776 1115.19 93.0282 1114.3 91.2852C1110.81 84.5179 1106.19 76.2574 1101.63 70.1699L1101.19 69.5879C1096.98 64.1007 1090.79 57.8664 1085.68 53.0371C1083.12 50.6147 1080.82 48.5309 1079.16 47.0527C1078.34 46.3171 1077.67 45.731 1077.21 45.3271L1082.98 25.2666ZM119.551 66.9629L39.2061 61.1631L173.987 26.3594L119.551 66.9629Z" stroke="black" stroke-width="3"/>
<rect x="48.5" y="112.5" width="1069" height="117" fill="#F7F7F7" stroke="black" stroke-width="3"/>
<rect x="48.5" y="229.5" width="1069" height="117" fill="#F7F7F7" stroke="black" stroke-width="3"/>
<rect x="48.5" y="344.5" width="1069" height="117" fill="#F7F7F7" stroke="black" stroke-width="3"/>
<rect x="48.5" y="461.5" width="1069" height="117" fill="#F7F7F7" stroke="black" stroke-width="3"/>
<rect x="48.5" y="574.5" width="1069" height="117" fill="#F7F7F7" stroke="black" stroke-width="3"/>
<rect x="48.5" y="691.5" width="1069" height="117" fill="#F7F7F7" stroke="black" stroke-width="3"/>
</svg>
